# xmcd CD database file
#
# Track frame offsets:
#	150
#	21597
#	37580
#	57765
#	75327
#	88335
#	134022
#	157977
#	179425
#	202680
#	218610
#	244825
#	260317
#
# Disc length: 3780 seconds
#
# Revision: 8
# Processed by: cddbd v1.5.2PL0 Copyright (c) Steve Scherf et al.
# Submitted via: CDex 2.00
#
DISCID=a30ec20d
DTITLE=Lynyrd Skynyrd - Color Collection
DYEAR=2007
DGENRE=Southern Rock
TTITLE0=Sweet home Alabama
TTITLE1=Swamp music
TTITLE2=Gimme three steps
TTITLE3=I ain't the one
TTITLE4=Double trouble
TTITLE5=Free bird
TTITLE6=Truck drivin' man
TTITLE7=Workin' for MCA
TTITLE8=Saturday night special
TTITLE9=What's your name
TTITLE10=That smell
TTITLE11=Don't ask me no questions
TTITLE12=Call me the breeze
EXTD=YEAR: 2007
EXTT0=
EXTT1=
EXTT2=
EXTT3=
EXTT4=
EXTT5=
EXTT6=
EXTT7=
EXTT8=
EXTT9=
EXTT10=
EXTT11=
EXTT12=
PLAYORDER=
